<?xml version="1.0" standalone="no"?>
<!DOCTYPE svg PUBLIC "-//W3C//DTD SVG 20010904//EN"
 "http://www.w3.org/TR/2001/REC-SVG-20010904/DTD/svg10.dtd">
<svg version="1.0" xmlns="http://www.w3.org/2000/svg"
 width="128.000000pt" height="128.000000pt" viewBox="0 0 128.000000 128.000000"
 preserveAspectRatio="xMidYMid meet">
<metadata>
Created by potrace 1.11, written by Peter Selinger 2001-2013
</metadata>
<g transform="translate(0.000000,128.000000) scale(0.100000,-0.100000)"
fill="#000000" stroke="none">
<path d="M0 640 l0 -640 640 0 640 0 0 640 0 640 -640 0 -640 0 0 -640z m218
528 c2 -13 -3 -18 -17 -18 -12 0 -21 -4 -21 -10 0 -16 -20 -12 -26 5 -9 21 15
47 40 43 11 -2 22 -11 24 -20z m23 -190 c66 1 99 -10 99 -33 0 -22 -20 -28
-39 -11 -22 20 -72 21 -97 0 -18 -15 -18 -15 11 -10 27 6 28 5 13 -7 -10 -8
-18 -20 -19 -28 0 -10 -2 -11 -6 -1 -8 21 -23 13 -23 -14 0 -21 3 -24 14 -15
23 19 26 -24 5 -69 -18 -37 -19 -60 -17 -320 2 -154 1 -280 -2 -280 -3 0 -19
22 -37 49 -28 43 -31 53 -22 87 14 62 12 301 -3 307 -10 3 -10 7 -1 18 9 11
19 201 14 276 -2 21 -41 26 -62 8 -15 -15 -21 -16 -34 -5 -14 12 -14 15 2 32
13 15 28 19 67 17 34 -2 51 1 54 10 4 11 6 11 12 1 5 -8 30 -13 71 -12z m243
-30 c40 -20 76 -61 82 -94 7 -37 -22 -108 -41 -100 -7 2 -17 -11 -25 -34 -7
-21 -34 -65 -61 -97 -45 -55 -57 -80 -24 -53 12 10 20 9 40 -4 14 -9 25 -20
25 -24 1 -13 51 -64 65 -66 8 -1 28 -15 45 -31 16 -16 30 -25 31 -19 1 5 4 -1
7 -14 7 -24 29 -31 24 -7 -1 7 2 16 8 20 7 4 7 12 0 24 -12 24 -4 85 16 116
12 18 13 28 4 44 -6 12 -12 50 -13 85 -1 35 -5 62 -9 59 -4 -2 -5 3 -1 12 4
13 8 14 14 4 6 -10 11 -5 18 14 14 36 14 37 -4 37 -19 0 -19 24 -1 40 8 6 12
19 9 28 -10 24 -55 61 -75 62 -10 0 -18 4 -18 9 0 5 45 8 101 7 104 -3 117 -8
120 -48 3 -54 2 -75 -4 -85 -4 -7 -3 -14 3 -18 6 -4 8 -10 5 -15 -11 -18 -16
-147 -7 -192 6 -32 6 -48 -1 -48 -6 0 -7 -24 -3 -67 4 -38 7 -76 7 -86 0 -12
5 -17 13 -14 10 4 12 -1 9 -14 -3 -10 -9 -16 -14 -13 -5 3 -9 -4 -9 -15 0 -12
5 -18 13 -16 6 3 23 -11 36 -30 26 -38 46 -47 36 -15 -7 21 10 60 26 60 6 0
17 -7 26 -15 8 -8 18 -13 22 -11 4 3 8 -7 9 -21 2 -29 10 -43 23 -43 5 0 7 12
3 28 -3 15 -2 23 3 17 4 -5 17 -17 27 -25 16 -12 18 -12 11 -1 -6 11 -4 13 9
8 10 -4 28 1 43 10 26 17 26 17 14 -4 -6 -12 -11 -26 -10 -30 3 -19 -2 -33
-12 -33 -5 0 -7 5 -3 12 5 8 2 9 -10 5 -10 -4 -24 -7 -32 -7 -8 0 -14 -4 -14
-8 0 -5 20 -9 44 -10 34 0 46 4 50 16 2 10 4 6 3 -8 -2 -24 -5 -25 -75 -28
-53 -2 -75 -7 -79 -18 -5 -13 -7 -13 -17 1 -11 14 -87 19 -286 17 -62 -1 -70
0 -64 10 3 5 9 6 13 3 14 -8 48 39 58 81 7 30 7 45 -2 57 -17 24 -28 21 -15
-3 8 -16 8 -24 -3 -34 -12 -13 -22 -9 -73 27 -32 23 -67 50 -76 59 -30 29 -67
50 -78 43 -7 -4 -27 11 -48 36 -64 73 -78 109 -42 109 11 0 37 17 58 38 73 73
69 183 -8 258 -22 22 -38 44 -35 51 2 7 0 15 -5 18 -40 24 76 18 124 -7z m386
-383 c-7 -8 -17 -15 -23 -15 -5 0 -2 9 8 20 21 23 35 19 15 -5z m350 -146 c0
-5 -7 -9 -15 -9 -8 0 -15 7 -15 15 0 9 6 12 15 9 8 -4 15 -10 15 -15z m5 -89
c3 -5 1 -10 -4 -10 -6 0 -11 5 -11 10 0 6 2 10 4 10 3 0 8 -4 11 -10z m-62
-30 c-5 -19 -23 -29 -23 -12 0 7 20 32 26 32 1 0 0 -9 -3 -20z"/>
<path d="M713 912 c16 -27 23 -32 25 -19 2 9 10 17 19 17 9 0 13 6 10 14 -3 8
-2 16 4 18 5 2 -11 4 -35 5 l-44 1 21 -36z"/>
<path d="M751 866 c-14 -14 -22 -29 -18 -32 9 -9 50 33 45 46 -2 6 -14 0 -27
-14z"/>
<path d="M770 676 c-12 -33 -12 -36 -1 -36 9 0 22 52 15 59 -2 2 -8 -8 -14
-23z"/>
<path d="M673 535 c-11 -19 -6 -55 7 -55 13 0 20 29 11 52 -7 21 -8 21 -18 3z"/>
<path d="M425 460 c3 -5 8 -10 11 -10 2 0 4 5 4 10 0 6 -5 10 -11 10 -5 0 -7
-4 -4 -10z"/>
<path d="M746 454 c-4 -9 -4 -19 -1 -22 2 -3 7 3 11 12 4 9 4 19 1 22 -2 3 -7
-3 -11 -12z"/>
<path d="M737 414 c-7 -13 -2 -152 6 -160 3 -4 15 -1 24 7 16 13 17 12 4 -4
-17 -21 -15 -23 28 -32 l34 -7 -22 30 c-11 17 -21 42 -21 57 0 14 -4 24 -9 21
-4 -3 -17 1 -27 9 -12 9 -14 14 -6 15 10 0 10 5 2 20 -6 12 -7 20 -1 20 5 0
11 -6 14 -12 4 -10 7 -10 18 0 11 10 10 12 -4 12 -9 0 -20 7 -25 16 -5 9 -12
13 -15 8z"/>
<path d="M830 311 c0 -6 4 -13 10 -16 6 -3 7 1 4 9 -7 18 -14 21 -14 7z"/>
<path d="M710 269 c0 -5 5 -7 10 -4 6 3 10 8 10 11 0 2 -4 4 -10 4 -5 0 -10
-5 -10 -11z"/>
<path d="M720 230 c0 -5 5 -10 10 -10 6 0 10 5 10 10 0 6 -4 10 -10 10 -5 0
-10 -4 -10 -10z"/>
<path d="M968 223 c7 -3 16 -2 19 1 4 3 -2 6 -13 5 -11 0 -14 -3 -6 -6z"/>
</g>
</svg>
